<svg width="11" height="11" viewBox="0 0 11 11" fill="none" xmlns="http://www.w3.org/2000/svg">
<path d="M10.8441 0.90862C11.052 0.70076 11.052 0.363754 10.8441 0.155895C10.6362 -0.0519648 10.2992 -0.0519648 10.0914 0.155895L5.5 4.74728L0.90862 0.155897C0.70076 -0.0519627 0.363754 -0.0519627 0.155895 0.155897C-0.0519648 0.363756 -0.0519648 0.700763 0.155895 0.908622L4.74727 5.5L0.155914 10.0914C-0.0519457 10.2992 -0.0519457 10.6362 0.155914 10.8441C0.363773 11.0519 0.70078 11.0519 0.908639 10.8441L5.5 6.25273L10.0914 10.8441C10.2992 11.0519 10.6362 11.0519 10.8441 10.8441C11.0519 10.6362 11.0519 10.2992 10.8441 10.0914L6.25272 5.5L10.8441 0.90862Z" fill="white"/>
</svg>
