<svg width="20" height="20" viewBox="0 0 20 20" fill="none" xmlns="http://www.w3.org/2000/svg">
<path d="M5.93555 5C5.52133 5 5.18555 5.33579 5.18555 5.75C5.18555 6.16421 5.52133 6.5 5.93555 6.5H8.93555C9.34976 6.5 9.68555 6.16421 9.68555 5.75C9.68555 5.33579 9.34976 5 8.93555 5H5.93555Z" fill="white"/>
<path d="M5.93555 9C5.52133 9 5.18555 9.33579 5.18555 9.75C5.18555 10.1642 5.52133 10.5 5.93555 10.5H13.9355C14.3498 10.5 14.6855 10.1642 14.6855 9.75C14.6855 9.33579 14.3498 9 13.9355 9H5.93555Z" fill="white"/>
<path d="M5.93555 13C5.52133 13 5.18555 13.3358 5.18555 13.75C5.18555 14.1642 5.52133 14.5 5.93555 14.5H8.93555C9.34976 14.5 9.68555 14.1642 9.68555 13.75C9.68555 13.3358 9.34976 13 8.93555 13H5.93555Z" fill="white"/>
<path fill-rule="evenodd" clip-rule="evenodd" d="M12.9612 0.0293686C12.104 1.32248e-07 11.1067 1.32337e-07 9.94662 1.32337e-07H9.8903C8.05376 -8.0335e-06 6.61416 -1.45286e-05 5.47202 0.123728C4.30649 0.250006 3.36211 0.512324 2.55578 1.09815C2.06764 1.45281 1.63836 1.88209 1.2837 2.37024C0.697871 3.17656 0.435553 4.12094 0.309275 5.28648C0.185532 6.42861 0.185539 7.86821 0.185547 9.70475V9.79525C0.185539 11.6318 0.185532 13.0714 0.309275 14.2135C0.435553 15.3791 0.697871 16.3234 1.2837 17.1298C1.63836 17.6179 2.06764 18.0472 2.55578 18.4018C3.36211 18.9877 4.30649 19.25 5.47202 19.3763C6.61414 19.5 8.05371 19.5 9.8902 19.5H9.98082C11.8173 19.5 13.257 19.5 14.3991 19.3763C15.5646 19.25 16.509 18.9877 17.3153 18.4018C17.8035 18.0472 18.2327 17.6179 18.5874 17.1298C19.1732 16.3234 19.4355 15.3791 19.5618 14.2135C19.6856 13.0714 19.6856 11.6318 19.6855 9.79535V9.73899C19.6855 8.57891 19.6855 7.58153 19.6562 6.72432C19.592 4.85087 19.3893 3.4739 18.5874 2.37024C18.2327 1.88209 17.8035 1.45281 17.3153 1.09815C16.2117 0.296296 14.8347 0.0935553 12.9612 0.0293686ZM3.43746 2.31168C3.94546 1.94259 4.59568 1.72745 5.63359 1.615C6.68554 1.50103 8.04397 1.5 9.93555 1.5C10.7839 1.5 11.5273 1.50005 12.1874 1.51082C12.1917 1.98547 12.2065 2.33489 12.2563 2.6495C12.646 5.10988 14.5757 7.03952 17.036 7.42921C17.3507 7.47904 17.7001 7.49381 18.1747 7.49818C18.1855 8.15822 18.1855 8.90165 18.1855 9.75C18.1855 11.6416 18.1845 13 18.0705 14.052C17.9581 15.0899 17.743 15.7401 17.3739 16.2481C17.1117 16.6089 16.7944 16.9262 16.4336 17.1883C15.9256 17.5574 15.2754 17.7725 14.2375 17.885C13.1856 17.999 11.8271 18 9.93555 18C8.04397 18 6.68554 17.999 5.63359 17.885C4.59568 17.7725 3.94546 17.5574 3.43746 17.1883C3.07666 16.9262 2.75936 16.6089 2.49723 16.2481C2.12814 15.7401 1.913 15.0899 1.80055 14.052C1.68658 13 1.68555 11.6416 1.68555 9.75C1.68555 7.85843 1.68658 6.49999 1.80055 5.44804C1.913 4.41013 2.12814 3.75992 2.49723 3.25191C2.75936 2.89111 3.07666 2.57382 3.43746 2.31168ZM13.7379 2.41485C13.7054 2.20981 13.693 1.97238 13.6883 1.56744C15.0487 1.66121 15.8342 1.87615 16.4336 2.31168C16.7944 2.57382 17.1117 2.89111 17.3739 3.25191C17.8094 3.85137 18.0243 4.63688 18.1181 5.99722C17.7132 5.99254 17.4757 5.98015 17.2707 5.94768C15.4522 5.65965 14.0259 4.23339 13.7379 2.41485Z" fill="white"/>
</svg>
