<svg width="12" height="12" viewBox="0 0 12 12" fill="none" xmlns="http://www.w3.org/2000/svg">
<path d="M6.46154 0.461538C6.46154 0.206638 6.2549 0 6 0C5.7451 0 5.53846 0.206638 5.53846 0.461538V8.34491C5.3399 8.1434 5.10385 7.84678 4.76033 7.41354L3.90011 6.32863C3.74175 6.1289 3.45145 6.09536 3.25171 6.25373C3.05198 6.4121 3.01844 6.7024 3.17681 6.90213L4.0545 8.00908C4.38261 8.42292 4.65337 8.7644 4.8957 9.00768C5.14439 9.25732 5.42041 9.46427 5.77313 9.52047C5.84827 9.53244 5.92407 9.53846 6 9.53846C6.07593 9.53846 6.15173 9.53244 6.22688 9.52047C6.5796 9.46427 6.85562 9.25732 7.1043 9.00768C7.34664 8.7644 7.61738 8.42292 7.9455 8.00908L8.82319 6.90213C8.98156 6.7024 8.94802 6.4121 8.74829 6.25373C8.54855 6.09536 8.25825 6.1289 8.09989 6.32863L7.23967 7.41354C6.89616 7.84678 6.6601 8.1434 6.46154 8.34491V0.461538Z" fill="white"/>
<path d="M11.2923 5.10742C11.1392 4.90361 10.8499 4.8625 10.6461 5.01558C10.4423 5.16867 10.4012 5.45799 10.5543 5.6618C10.8826 6.09887 11.0769 6.64146 11.0769 7.23077V7.84615C11.0769 8.43548 11.0755 8.67641 11.0447 8.87067C10.8675 9.98977 9.98977 10.8675 8.87067 11.0447C8.67642 11.0755 8.43549 11.0769 7.84615 11.0769H4.15385C3.56452 11.0769 3.32359 11.0755 3.12933 11.0447C2.01023 10.8675 1.13253 9.98977 0.955281 8.87067C0.924514 8.67641 0.923081 8.43548 0.923081 7.84615V7.23077C0.923081 6.64146 1.11744 6.09887 1.44573 5.6618C1.59882 5.45799 1.5577 5.16867 1.35389 5.01558C1.15008 4.8625 0.860759 4.90361 0.707672 5.10742C0.263429 5.69886 5.12648e-06 6.43471 5.12648e-06 7.23077L2.52222e-06 7.89589C-3.90726e-05 8.4202 -6.43821e-05 8.73958 0.0435694 9.01507C0.283376 10.5292 1.47085 11.7166 2.98493 11.9564C3.26042 12.0001 3.5798 12 4.10412 12H7.89588C8.4202 12 8.73958 12.0001 9.01507 11.9564C10.5292 11.7166 11.7166 10.5292 11.9564 9.01507C12.0001 8.73958 12 8.4202 12 7.89587L12 7.23077C12 6.43471 11.7366 5.69886 11.2923 5.10742Z" fill="white"/>
</svg>
