<svg width="20" height="20" viewBox="0 0 20 20" fill="none" xmlns="http://www.w3.org/2000/svg">
<path d="M12.9355 1.50001C13.8932 1.50001 14.2847 1.50234 14.6004 1.55233C16.4189 1.84036 17.8452 3.26662 18.1332 5.08516C18.1832 5.40083 18.1855 5.79234 18.1855 6.75001V12.75C18.1855 13.7077 18.1832 14.0992 18.1332 14.4149C17.8452 16.2334 16.4189 17.6597 14.6004 17.9477C14.2847 17.9977 13.8932 18 12.9355 18H11.9355C10.9779 18 10.0962 17.6842 9.38598 17.1507C9.05479 16.9019 8.58464 16.9688 8.33587 17.2999C8.0871 17.6311 8.15392 18.1013 8.48511 18.35C9.44619 19.0719 10.642 19.5 11.9355 19.5L13.0164 19.5C13.8684 19.5001 14.3874 19.5001 14.835 19.4292C17.2954 19.0395 19.2251 17.1099 19.6148 14.6495C19.6857 14.2018 19.6856 13.6828 19.6856 12.8308V6.66921C19.6856 5.81718 19.6857 5.29819 19.6148 4.85051C19.2251 2.39013 17.2954 0.460485 14.835 0.070799C14.3874 -0.00010284 13.8684 -6.27691e-05 13.0164 4.0253e-06L11.9355 7.88724e-06C10.642 7.94379e-06 9.44619 0.428072 8.48511 1.14997C8.15392 1.39874 8.0871 1.86889 8.33587 2.20008C8.58464 2.53127 9.05479 2.59808 9.38598 2.34932C10.0962 1.81583 10.9779 1.50001 11.9355 1.50001H12.9355Z" fill="white"/>
<path d="M11.4015 5.16233C11.0769 4.90498 10.6052 4.95947 10.3479 5.28404C10.0905 5.60861 10.145 6.08034 10.4696 6.33769L12.2325 7.73554C12.9366 8.29376 13.4186 8.67735 13.746 9.00001L0.935547 9.00001C0.521333 9.00001 0.185547 9.3358 0.185547 9.75001C0.185547 10.1642 0.521333 10.5 0.935547 10.5L13.746 10.5C13.4186 10.8227 12.9366 11.2063 12.2325 11.7645L10.4696 13.1623C10.145 13.4197 10.0905 13.8914 10.3479 14.216C10.6052 14.5405 11.0769 14.595 11.4015 14.3377L13.2003 12.9114C13.8728 12.3783 14.4277 11.9383 14.823 11.5445C15.2287 11.1404 15.565 10.6919 15.6563 10.1187C15.6758 9.99657 15.6855 9.87339 15.6855 9.75001C15.6855 9.62662 15.6758 9.50345 15.6563 9.38134C15.565 8.80817 15.2287 8.35963 14.823 7.95552C14.4277 7.56173 13.8728 7.12176 13.2003 6.58858L11.4015 5.16233Z" fill="white"/>
</svg>
