<svg width="21" height="18" viewBox="0 0 21 18" fill="none" xmlns="http://www.w3.org/2000/svg">
<path fill-rule="evenodd" clip-rule="evenodd" d="M14.7033 0.0590505C13.9333 -7.3798e-06 12.9835 -4.10236e-06 11.7752 6.99732e-08H10.0891C8.88076 -4.10235e-06 7.93099 -7.49901e-06 7.16097 0.0590505C6.37503 0.11933 5.7203 0.244083 5.11174 0.523058C4.10631 0.983974 3.25514 1.72509 2.66029 2.65756C2.49645 2.9144 2.36237 3.18586 2.24887 3.47997C1.88791 4.41527 1.71665 5.64886 1.46885 7.43375L1.45322 7.54628C1.39624 7.95655 1.68264 8.33534 2.09292 8.39232C2.50319 8.44931 2.88198 8.16291 2.93896 7.75263C3.09593 6.62248 3.21282 5.79325 3.34118 5.14891C4.93003 6.73769 6.18259 7.98534 7.29367 8.83306C8.4526 9.7173 9.54534 10.2368 10.8108 10.2368C12.0762 10.2368 13.169 9.7173 14.3279 8.83307C15.4602 7.96919 16.7393 6.69001 18.3716 5.05773L18.4814 4.94795C18.6258 5.61552 18.7511 6.49812 18.9253 7.75263C19.1452 9.33593 19.3029 10.4762 19.3499 11.3741C19.3966 12.2646 19.3282 12.839 19.1449 13.3052C18.7871 14.2152 18.1264 14.9741 17.2742 15.4537C16.8376 15.6994 16.2781 15.8461 15.3897 15.9224C14.4939 15.9994 13.3427 16 11.7442 16H10.12C9.70582 16 9.37004 16.3358 9.37004 16.75C9.37004 17.1642 9.70582 17.5 10.12 17.5H11.7802C13.335 17.5 14.5505 17.5 15.5181 17.4169C16.5004 17.3325 17.3046 17.1579 18.01 16.7609C19.1629 16.112 20.0568 15.0853 20.5409 13.8541C20.8371 13.1008 20.8995 12.2803 20.8479 11.2957C20.7971 10.3259 20.6299 9.12191 20.416 7.58178L20.3916 7.40625C20.1255 5.48927 19.9473 4.2055 19.5133 3.23414C19.4229 3.032 19.3209 2.84084 19.204 2.65756C18.6091 1.72509 17.7579 0.983974 16.7525 0.523058C16.144 0.244083 15.4892 0.11933 14.7033 0.0590505ZM3.85902 3.57302C3.88036 3.53589 3.9023 3.49969 3.92489 3.46429C4.36456 2.77507 4.99368 2.22729 5.73683 1.88661C6.12044 1.71075 6.57905 1.60809 7.27568 1.55466C7.98166 1.50051 8.87404 1.5 10.12 1.5H11.7442C12.9902 1.5 13.8826 1.50051 14.5886 1.55466C15.2852 1.60809 15.7438 1.71075 16.1274 1.88661C16.8496 2.21767 17.4641 2.74432 17.9017 3.40629L17.3515 3.95647C15.6699 5.63813 14.4608 6.84489 13.418 7.64053C12.3925 8.42297 11.6164 8.7368 10.8108 8.7368C10.0052 8.7368 9.22904 8.42297 8.20354 7.64053C7.16073 6.84489 5.95171 5.63813 4.27005 3.95647L4.26062 3.94704L3.85902 3.57302Z" fill="white"/>
<path d="M0.75 11C0.335786 11 0 11.3358 0 11.75C0 12.1642 0.335786 12.5 0.75 12.5H3.75C4.16421 12.5 4.5 12.1642 4.5 11.75C4.5 11.3358 4.16421 11 3.75 11H0.75Z" fill="white"/>
<path d="M0.75 14C0.335786 14 0 14.3358 0 14.75C0 15.1642 0.335786 15.5 0.75 15.5H6.75C7.16421 15.5 7.5 15.1642 7.5 14.75C7.5 14.3358 7.16421 14 6.75 14H0.75Z" fill="white"/>
</svg>
