<svg width="17" height="17" viewBox="0 0 17 17" fill="none" xmlns="http://www.w3.org/2000/svg">
<path fill-rule="evenodd" clip-rule="evenodd" d="M7.36668 0C3.29817 0 0 3.29818 0 7.36668C0 11.4352 3.29817 14.7334 7.36668 14.7334C11.4352 14.7334 14.7334 11.4352 14.7334 7.36668C14.7334 3.29818 11.4352 0 7.36668 0ZM1.13334 7.36668C1.13334 3.9241 3.9241 1.13334 7.36668 1.13334C10.8093 1.13334 13.6 3.9241 13.6 7.36668C13.6 10.8093 10.8093 13.6 7.36668 13.6C3.9241 13.6 1.13334 10.8093 1.13334 7.36668Z" fill="white"/>
<path d="M13.8119 13.0105C13.5906 12.7892 13.2318 12.7892 13.0105 13.0105C12.7892 13.2318 12.7892 13.5906 13.0105 13.8119L16.0326 16.8341C16.2539 17.0554 16.6127 17.0554 16.834 16.8341C17.0553 16.6128 17.0553 16.254 16.834 16.0327L13.8119 13.0105Z" fill="white"/>
</svg>
