<svg width="20" height="22" viewBox="0 0 20 22" fill="none" xmlns="http://www.w3.org/2000/svg">
<path d="M10.5407 8.75C10.5407 8.33579 10.2036 8 9.78779 8C9.37197 8 9.03488 8.33579 9.03488 8.75V11H6.77616C6.36034 11 6.02326 11.3358 6.02326 11.75C6.02326 12.1642 6.36034 12.5 6.77616 12.5H9.03488V14.75C9.03488 15.1642 9.37197 15.5 9.78779 15.5C10.2036 15.5 10.5407 15.1642 10.5407 14.75V12.5H12.7994C13.2152 12.5 13.5523 12.1642 13.5523 11.75C13.5523 11.3358 13.2152 11 12.7994 11H10.5407V8.75Z" fill="#000"/>
<path fill-rule="evenodd" clip-rule="evenodd" d="M12.8252 0.0293686C11.9647 1.32248e-07 10.9634 1.32337e-07 9.7989 1.32337e-07H9.74237C7.89871 -8.0335e-06 6.45353 -1.45286e-05 5.30697 0.123728C4.13691 0.250006 3.18887 0.512324 2.37942 1.09815C1.88939 1.45281 1.45844 1.88209 1.10241 2.37024C0.51431 3.17656 0.250975 4.12094 0.124208 5.28648C-1.45849e-05 6.42861 -8.06464e-06 7.86821 1.32851e-07 9.70475V11.7952C-8.06464e-06 13.6318 -1.45849e-05 15.0714 0.124208 16.2135C0.250975 17.3791 0.51431 18.3234 1.10241 19.1298C1.45844 19.6179 1.88939 20.0472 2.37942 20.4018C3.18887 20.9877 4.13691 21.25 5.30697 21.3763C6.45351 21.5 7.89866 21.5 9.74227 21.5H9.83324C11.6768 21.5 13.1221 21.5 14.2686 21.3763C15.4387 21.25 16.3867 20.9877 17.1962 20.4018C17.6862 20.0472 18.1171 19.6179 18.4732 19.1298C19.0613 18.3234 19.3246 17.3791 19.4514 16.2135C19.5756 15.0714 19.5756 13.6318 19.5756 11.7953V9.73899C19.5756 8.57891 19.5756 7.58153 19.5461 6.72432C19.4817 4.85087 19.2781 3.4739 18.4732 2.37024C18.1171 1.88209 17.6862 1.45281 17.1962 1.09815C16.0882 0.296296 14.7059 0.0935553 12.8252 0.0293686ZM3.26452 2.31168C3.77449 1.94259 4.42723 1.72745 5.46916 1.615C6.52519 1.50103 7.88889 1.5 9.78779 1.5C10.6394 1.5 11.3857 1.50005 12.0483 1.51082C12.0527 1.98547 12.0676 2.33489 12.1176 2.6495C12.5088 5.10988 14.4459 7.03952 16.9158 7.42921C17.2316 7.47904 17.5824 7.49381 18.0589 7.49818C18.0697 8.15822 18.0698 8.90165 18.0698 9.75V11.75C18.0698 13.6416 18.0687 15 17.9543 16.052C17.8414 17.0899 17.6255 17.7401 17.2549 18.2481C16.9918 18.6089 16.6733 18.9262 16.3111 19.1883C15.8011 19.5574 15.1484 19.7725 14.1064 19.885C13.0504 19.999 11.6867 20 9.78779 20C7.88889 20 6.52519 19.999 5.46916 19.885C4.42723 19.7725 3.77449 19.5574 3.26452 19.1883C2.90232 18.9262 2.58379 18.6089 2.32064 18.2481C1.95012 17.7401 1.73415 17.0899 1.62126 16.052C1.50685 15 1.50581 13.6416 1.50581 11.75V9.75C1.50581 7.85843 1.50685 6.49999 1.62126 5.44804C1.73415 4.41013 1.95012 3.75992 2.32064 3.25191C2.58379 2.89111 2.90232 2.57382 3.26452 2.31168ZM13.6049 2.41485C13.5723 2.20981 13.5598 1.97238 13.5551 1.56744C14.9207 1.66121 15.7093 1.87615 16.3111 2.31168C16.6733 2.57382 16.9918 2.89111 17.2549 3.25191C17.6922 3.85137 17.9079 4.63688 18.0021 5.99722C17.5956 5.99254 17.3572 5.98015 17.1514 5.94768C15.3258 5.65965 13.894 4.23339 13.6049 2.41485Z" fill="#000"/>
</svg>
