<svg width="22" height="23" viewBox="0 0 22 23" fill="none" xmlns="http://www.w3.org/2000/svg">
<path d="M4.71852 1.33568C5.04197 1.07692 5.09441 0.604953 4.83565 0.281506C4.57689 -0.0419401 4.10493 -0.0943811 3.78148 0.164376L1.28148 2.16438C0.958032 2.42313 0.905591 2.8951 1.16435 3.21855C1.42311 3.542 1.89507 3.59444 2.21852 3.33568L4.71852 1.33568Z" fill="black"/>
<path d="M17.7185 0.164376C17.3951 -0.0943811 16.9231 -0.0419401 16.6643 0.281506C16.4056 0.604953 16.458 1.07692 16.7815 1.33568L19.2815 3.33568C19.6049 3.59444 20.0769 3.542 20.3357 3.21855C20.5944 2.8951 20.542 2.42313 20.2185 2.16438L17.7185 0.164376Z" fill="black"/>
<path d="M11.5 7.75003C11.5 7.33581 11.1642 7.00003 10.75 7.00003C10.3358 7.00003 10 7.33581 10 7.75003V11.9559C10 12.2747 9.8782 12.5814 9.65951 12.8134L8.2043 14.3569C7.92015 14.6582 7.93412 15.1329 8.2355 15.4171C8.53689 15.7012 9.01156 15.6872 9.2957 15.3858L10.7509 13.8424C11.232 13.3321 11.5 12.6572 11.5 11.9559V7.75003Z" fill="black"/>
<path fill-rule="evenodd" clip-rule="evenodd" d="M10.75 1.00003C4.81294 1.00003 0 5.81296 0 11.75C0 17.6871 4.81294 22.5 10.75 22.5C16.6871 22.5 21.5 17.6871 21.5 11.75C21.5 5.81296 16.6871 1.00003 10.75 1.00003ZM1.5 11.75C1.5 6.64139 5.64137 2.50003 10.75 2.50003C15.8586 2.50003 20 6.64139 20 11.75C20 16.8587 15.8586 21 10.75 21C5.64137 21 1.5 16.8587 1.5 11.75Z" fill="black"/>
</svg>
