<svg width="20" height="20" viewBox="0 0 20 20" fill="none" xmlns="http://www.w3.org/2000/svg">
<path d="M10.75 7C10.3358 7 10 7.33579 10 7.75C10 8.16421 10.3358 8.5 10.75 8.5H13.75C14.1642 8.5 14.5 8.16421 14.5 7.75C14.5 7.33579 14.1642 7 13.75 7H10.75Z" fill="black"/>
<path d="M5.75 11C5.33579 11 5 11.3358 5 11.75C5 12.1642 5.33579 12.5 5.75 12.5H13.75C14.1642 12.5 14.5 12.1642 14.5 11.75C14.5 11.3358 14.1642 11 13.75 11H5.75Z" fill="black"/>
<path fill-rule="evenodd" clip-rule="evenodd" d="M17.1298 1.09815C16.3234 0.512324 15.3791 0.250006 14.2135 0.123728C13.0714 -1.45286e-05 11.6318 -8.0335e-06 9.79525 1.32337e-07H9.73893C8.57888 1.32337e-07 7.58152 1.32248e-07 6.72432 0.0293686C4.85087 0.0935553 3.4739 0.296296 2.37024 1.09815C1.88209 1.45281 1.45281 1.88209 1.09815 2.37024C0.296295 3.4739 0.0935554 4.85087 0.029369 6.72432C1.3411e-07 7.58153 1.33767e-07 8.57891 1.33767e-07 9.73898V9.79526C-8.09167e-06 11.6318 -1.45286e-05 13.0714 0.123728 14.2135C0.250006 15.3791 0.512323 16.3234 1.09815 17.1298C1.45281 17.6179 1.88209 18.0472 2.37024 18.4018C3.17656 18.9877 4.12094 19.25 5.28648 19.3763C6.42859 19.5 7.86817 19.5 9.70465 19.5H9.79527C11.6318 19.5 13.0714 19.5 14.2135 19.3763C15.3791 19.25 16.3234 18.9877 17.1298 18.4018C17.6179 18.0472 18.0472 17.6179 18.4018 17.1298C18.9877 16.3234 19.25 15.3791 19.3763 14.2135C19.5 13.0714 19.5 11.6318 19.5 9.79535V9.70473C19.5 7.86824 19.5 6.42859 19.3763 5.28648C19.25 4.12094 18.9877 3.17656 18.4018 2.37024C18.0472 1.88209 17.6179 1.45281 17.1298 1.09815ZM9.75 1.5C11.6416 1.5 13 1.50103 14.052 1.615C15.0899 1.72745 15.7401 1.94259 16.2481 2.31168C16.6089 2.57382 16.9262 2.89111 17.1883 3.25191C17.5574 3.75992 17.7725 4.41013 17.885 5.44804C17.999 6.49999 18 7.85843 18 9.75C18 11.6416 17.999 13 17.885 14.052C17.7725 15.0899 17.5574 15.7401 17.1883 16.2481C16.9262 16.6089 16.6089 16.9262 16.2481 17.1883C15.7401 17.5574 15.0899 17.7725 14.052 17.885C13 17.999 11.6416 18 9.75 18C7.85843 18 6.49999 17.999 5.44804 17.885C4.41013 17.7725 3.75992 17.5574 3.25191 17.1883C2.89111 16.9262 2.57382 16.6089 2.31168 16.2481C1.94259 15.7401 1.72745 15.0899 1.615 14.052C1.50103 13 1.5 11.6416 1.5 9.75C1.5 8.90165 1.50005 8.15822 1.51082 7.49818C1.98547 7.49381 2.33489 7.47904 2.6495 7.42921C5.10988 7.03952 7.03952 5.10988 7.42921 2.6495C7.47904 2.33489 7.49381 1.98547 7.49818 1.51082C8.15822 1.50005 8.90165 1.5 9.75 1.5ZM2.41485 5.94768C2.20981 5.98015 1.97239 5.99254 1.56744 5.99722C1.66121 4.63688 1.87615 3.85137 2.31168 3.25191C2.57382 2.89111 2.89111 2.57382 3.25191 2.31168C3.85137 1.87615 4.63688 1.66121 5.99722 1.56744C5.99254 1.97238 5.98015 2.20981 5.94768 2.41485C5.65965 4.23339 4.23339 5.65965 2.41485 5.94768Z" fill="black"/>
</svg>
