<svg width="22" height="20" viewBox="0 0 22 20" fill="none" xmlns="http://www.w3.org/2000/svg">
<path fill-rule="evenodd" clip-rule="evenodd" d="M16.2135 0.373728C15.0714 0.249985 13.6318 0.249992 11.7952 0.25H9.70475C7.86821 0.249992 6.42861 0.249985 5.28648 0.373728C4.12094 0.500006 3.17656 0.762324 2.37024 1.34815C1.88209 1.70281 1.45281 2.13209 1.09815 2.62024C0.93647 2.84277 0.798011 3.07781 0.679871 3.32797C0.318084 4.09404 0.156711 4.98237 0.0780647 6.04168C-4.5076e-06 7.09323 -2.43067e-06 8.38224 1.32337e-07 9.97156V10.0452C-8.0335e-06 11.8818 -1.45286e-05 13.3214 0.123728 14.4635C0.250006 15.6291 0.512324 16.5734 1.09815 17.3798C1.45281 17.8679 1.88209 18.2972 2.37024 18.6518C3.17656 19.2377 4.12094 19.5 5.28648 19.6263C6.42859 19.75 7.86817 19.75 9.70465 19.75H11.7953C13.6318 19.75 15.0714 19.75 16.2135 19.6263C17.3791 19.5 18.3234 19.2377 19.1298 18.6518C19.6179 18.2972 20.0472 17.8679 20.4018 17.3798C20.9877 16.5734 21.25 15.6291 21.3763 14.4635C21.5 13.3214 21.5 11.8818 21.5 10.0453V9.9709C21.5 8.37073 21.5 7.07486 21.4202 6.01904C21.3399 4.95506 21.1748 4.06379 20.8046 3.29546C20.6899 3.05734 20.5565 2.83304 20.4018 2.62024C20.0472 2.13209 19.6179 1.70281 19.1298 1.34815C18.3234 0.762324 17.3791 0.500006 16.2135 0.373728ZM3.25191 2.56168C3.75992 2.19259 4.41013 1.97745 5.44804 1.865C6.49999 1.75103 7.85843 1.75 9.75 1.75H11.75C13.6416 1.75 15 1.75103 16.052 1.865C17.0899 1.97745 17.7401 2.19259 18.2481 2.56168C18.6087 2.82369 18.9259 3.14081 19.1879 3.50139L17.2907 5.39861C15.6091 7.08026 14.4001 8.28703 13.3572 9.08267C12.3317 9.8651 11.5556 10.1789 10.75 10.1789C9.94438 10.1789 9.16825 9.8651 8.14275 9.08267C7.09994 8.28703 5.89092 7.08026 4.20926 5.3986L2.31205 3.50139C2.57412 3.14081 2.89128 2.82369 3.25191 2.56168ZM19.7873 5.02337C19.8477 5.34361 19.8925 5.70891 19.9245 6.13204C19.9995 7.12493 20 8.36482 20 10C20 11.8916 19.999 13.25 19.885 14.302C19.7725 15.3399 19.5574 15.9901 19.1883 16.4981C18.9262 16.8589 18.6089 17.1762 18.2481 17.4383C17.7401 17.8074 17.0899 18.0225 16.052 18.135C15 18.249 13.6416 18.25 11.75 18.25H9.75C7.85843 18.25 6.49999 18.249 5.44804 18.135C4.41013 18.0225 3.75992 17.8074 3.25191 17.4383C2.89111 17.1762 2.57382 16.8589 2.31168 16.4981C1.94259 15.9901 1.72745 15.3399 1.615 14.302C1.50103 13.25 1.5 11.8916 1.5 10C1.5 8.37645 1.50047 7.14244 1.57395 6.15274C1.60601 5.72084 1.65131 5.34885 1.71271 5.02337L3.18917 6.49983C4.82144 8.13212 6.10062 9.41131 7.23288 10.2752C8.39181 11.1594 9.48455 11.6789 10.75 11.6789C12.0155 11.6789 13.1082 11.1594 14.2671 10.2752C15.3994 9.41132 16.6785 8.13213 18.3108 6.49986L19.7873 5.02337Z" fill="#2D264B"/>
</svg>
