<svg width="20" height="22" viewBox="0 0 20 22" fill="none" xmlns="http://www.w3.org/2000/svg">
<path fill-rule="evenodd" clip-rule="evenodd" d="M9.72741 6C8.20862 6 6.97741 7.23122 6.97741 8.75C6.97741 10.0088 7.82315 11.07 8.97741 11.3965V14.75C8.97741 15.1642 9.31319 15.5 9.72741 15.5C10.1416 15.5 10.4774 15.1642 10.4774 14.75V11.3965C11.6317 11.07 12.4774 10.0088 12.4774 8.75C12.4774 7.23122 11.2462 6 9.72741 6ZM8.47741 8.75C8.47741 8.05964 9.03705 7.5 9.72741 7.5C10.4178 7.5 10.9774 8.05964 10.9774 8.75C10.9774 9.44036 10.4178 10 9.72741 10C9.03705 10 8.47741 9.44036 8.47741 8.75Z" fill="black"/>
<path fill-rule="evenodd" clip-rule="evenodd" d="M7.29038 0C5.74858 0 4.49871 1.24987 4.49871 2.79167C4.49871 3.50503 3.92041 4.08333 3.20704 4.08333H2.89818C1.32212 4.08333 -0.0817939 5.30273 0.00371348 6.99648C0.105237 9.00749 0.55189 12.1418 2.18104 15.1108C2.63733 15.9423 3.24673 16.7592 3.90549 17.5203L3.95509 17.5776C4.90276 18.6726 5.69291 19.5856 6.54238 20.2079C7.45607 20.8773 8.43125 21.2107 9.72755 21.2107C11.0238 21.2107 11.999 20.8773 12.9127 20.2079C13.7622 19.5856 14.5523 18.6726 15.5 17.5776L15.5496 17.5203C16.2084 16.7592 16.8178 15.9423 17.2741 15.1108C18.9574 12.0431 19.3771 8.57667 19.4599 6.41561C19.5245 4.72999 18.1306 3.5 16.5457 3.5H15.9564C15.4041 3.5 14.9564 3.05228 14.9564 2.5C14.9564 1.11929 13.8371 0 12.4564 0H7.29038ZM5.99871 2.79167C5.99871 2.0783 6.57701 1.5 7.29038 1.5H12.4564C13.0087 1.5 13.4564 1.94772 13.4564 2.5C13.4564 3.88071 14.5757 5 15.9564 5H16.5457C17.3834 5 17.9892 5.6231 17.961 6.35819C17.8819 8.42293 17.4793 11.6186 15.959 14.3892C15.5701 15.098 15.0315 15.8268 14.4154 16.5386C13.4053 17.7057 12.7232 18.4873 12.0262 18.9979C11.3787 19.4723 10.7164 19.7107 9.72755 19.7107C8.73874 19.7107 8.0764 19.4723 7.42885 18.9979C6.73186 18.4873 6.04978 17.7057 5.03966 16.5386C4.42358 15.8268 3.88501 15.098 3.49607 14.3892C2.01759 11.6948 1.59726 8.81159 1.50181 6.92085C1.46549 6.20149 2.05804 5.58333 2.89818 5.58333H3.20704C4.74884 5.58333 5.99871 4.33346 5.99871 2.79167Z" fill="black"/>
</svg>
