<svg width="20" height="22" viewBox="0 0 20 22" fill="none" xmlns="http://www.w3.org/2000/svg">
<path d="M10.5 8.75C10.5 8.33579 10.1642 8 9.75 8C9.33579 8 9 8.33579 9 8.75V11H6.75C6.33579 11 6 11.3358 6 11.75C6 12.1642 6.33579 12.5 6.75 12.5H9V14.75C9 15.1642 9.33579 15.5 9.75 15.5C10.1642 15.5 10.5 15.1642 10.5 14.75V12.5H12.75C13.1642 12.5 13.5 12.1642 13.5 11.75C13.5 11.3358 13.1642 11 12.75 11H10.5V8.75Z" fill="#0889A5"/>
<path fill-rule="evenodd" clip-rule="evenodd" d="M12.7757 0.0293686C11.9185 1.32248e-07 10.9211 1.32337e-07 9.76107 1.32337e-07H9.70475C7.86821 -8.0335e-06 6.42861 -1.45286e-05 5.28648 0.123728C4.12094 0.250006 3.17656 0.512324 2.37024 1.09815C1.88209 1.45281 1.45281 1.88209 1.09815 2.37024C0.512324 3.17656 0.250006 4.12094 0.123728 5.28648C-1.45286e-05 6.42861 -8.0335e-06 7.86821 1.32338e-07 9.70475V11.7952C-8.0335e-06 13.6318 -1.45286e-05 15.0714 0.123728 16.2135C0.250006 17.3791 0.512324 18.3234 1.09815 19.1298C1.45281 19.6179 1.88209 20.0472 2.37024 20.4018C3.17656 20.9877 4.12094 21.25 5.28648 21.3763C6.42859 21.5 7.86817 21.5 9.70465 21.5H9.79527C11.6318 21.5 13.0714 21.5 14.2135 21.3763C15.3791 21.25 16.3234 20.9877 17.1298 20.4018C17.6179 20.0472 18.0472 19.6179 18.4018 19.1298C18.9877 18.3234 19.25 17.3791 19.3763 16.2135C19.5 15.0714 19.5 13.6318 19.5 11.7953V9.73899C19.5 8.57891 19.5 7.58153 19.4706 6.72432C19.4064 4.85087 19.2037 3.4739 18.4018 2.37024C18.0472 1.88209 17.6179 1.45281 17.1298 1.09815C16.0261 0.296296 14.6491 0.0935553 12.7757 0.0293686ZM3.25191 2.31168C3.75992 1.94259 4.41013 1.72745 5.44804 1.615C6.49999 1.50103 7.85843 1.5 9.75 1.5C10.5983 1.5 11.3418 1.50005 12.0018 1.51082C12.0062 1.98547 12.021 2.33489 12.0708 2.6495C12.4605 5.10988 14.3901 7.03952 16.8505 7.42921C17.1651 7.47904 17.5145 7.49381 17.9892 7.49818C18 8.15822 18 8.90165 18 9.75V11.75C18 13.6416 17.999 15 17.885 16.052C17.7725 17.0899 17.5574 17.7401 17.1883 18.2481C16.9262 18.6089 16.6089 18.9262 16.2481 19.1883C15.7401 19.5574 15.0899 19.7725 14.052 19.885C13 19.999 11.6416 20 9.75 20C7.85843 20 6.49999 19.999 5.44804 19.885C4.41013 19.7725 3.75992 19.5574 3.25191 19.1883C2.89111 18.9262 2.57382 18.6089 2.31168 18.2481C1.94259 17.7401 1.72745 17.0899 1.615 16.052C1.50103 15 1.5 13.6416 1.5 11.75V9.75C1.5 7.85843 1.50103 6.49999 1.615 5.44804C1.72745 4.41013 1.94259 3.75992 2.31168 3.25191C2.57382 2.89111 2.89111 2.57382 3.25191 2.31168ZM13.5523 2.41485C13.5199 2.20981 13.5075 1.97238 13.5028 1.56744C14.8631 1.66121 15.6486 1.87615 16.2481 2.31168C16.6089 2.57382 16.9262 2.89111 17.1883 3.25191C17.6238 3.85137 17.8388 4.63688 17.9326 5.99722C17.5276 5.99254 17.2902 5.98015 17.0852 5.94768C15.2666 5.65965 13.8404 4.23339 13.5523 2.41485Z" fill="#0889A5"/>
</svg>
