<svg width="20" height="22" viewBox="0 0 20 22" fill="none" xmlns="http://www.w3.org/2000/svg">
<path d="M6 12.75C6 12.3358 6.33579 12 6.75 12H12.75C13.1642 12 13.5 12.3358 13.5 12.75C13.5 13.1642 13.1642 13.5 12.75 13.5H6.75C6.33579 13.5 6 13.1642 6 12.75Z" fill="black"/>
<path fill-rule="evenodd" clip-rule="evenodd" d="M6.75 0C7.16421 0 7.5 0.335786 7.5 0.75V2.01061C8.16924 2 8.91284 2 9.73894 2H9.76106C10.5872 2 11.3308 2 12 2.01061V0.75C12 0.335786 12.3358 0 12.75 0C13.1642 0 13.5 0.335786 13.5 0.75V2.06358C15.0119 2.15837 16.1734 2.40335 17.1298 3.09815C17.6179 3.45281 18.0472 3.88209 18.4018 4.37023C19.2037 5.4739 19.4064 6.85088 19.4706 8.72432C19.5 9.58153 19.5 10.5789 19.5 11.739V11.761C19.5 12.9211 19.5 13.9185 19.4706 14.7757C19.4064 16.6491 19.2037 18.0261 18.4018 19.1298C18.0472 19.6179 17.6179 20.0472 17.1298 20.4018C16.0261 21.2037 14.6491 21.4064 12.7757 21.4706C11.9184 21.5 10.921 21.5 9.76079 21.5H9.70473C7.8682 21.5 6.42861 21.5 5.28648 21.3763C4.12094 21.25 3.17656 20.9877 2.37024 20.4018C1.88209 20.0472 1.45281 19.6179 1.09815 19.1298C0.512324 18.3234 0.250006 17.3791 0.123728 16.2135C-1.46478e-05 15.0714 -8.14982e-06 13.6318 1.35224e-07 11.7952L2.54433e-07 11.7389C-4.35903e-08 10.5789 -2.81259e-07 9.58152 0.0293685 8.72432C0.0935552 6.85087 0.296296 5.4739 1.09815 4.37023C1.45281 3.88209 1.88209 3.45281 2.37024 3.09815C3.32655 2.40335 4.48808 2.15837 6 2.06358V0.75C6 0.335786 6.33579 0 6.75 0ZM6 3.56725C4.63795 3.66092 3.85177 3.87585 3.25191 4.31168C2.89111 4.57382 2.57382 4.89111 2.31168 5.25191C1.87585 5.85177 1.66092 6.63795 1.56725 8H17.9327C17.8391 6.63795 17.6241 5.85177 17.1883 5.25191C16.9262 4.89111 16.6089 4.57382 16.2481 4.31168C15.6482 3.87585 14.8621 3.66092 13.5 3.56725V3.75C13.5 4.16421 13.1642 4.5 12.75 4.5C12.3358 4.5 12 4.16421 12 3.75V3.51079C11.3404 3.50005 10.5976 3.5 9.75 3.5C8.90243 3.5 8.15959 3.50005 7.5 3.51079V3.75C7.5 4.16421 7.16421 4.5 6.75 4.5C6.33579 4.5 6 4.16421 6 3.75V3.56725ZM17.9892 9.5H1.51079C1.50005 10.1596 1.5 10.9024 1.5 11.75C1.5 13.6416 1.50103 15 1.615 16.052C1.72745 17.0899 1.94259 17.7401 2.31168 18.2481C2.57382 18.6089 2.89111 18.9262 3.25191 19.1883C3.75992 19.5574 4.41013 19.7725 5.44805 19.885C6.49999 19.999 7.85843 20 9.75 20C10.5983 20 11.3418 19.9999 12.0018 19.9892C12.0062 19.5145 12.021 19.1651 12.0708 18.8505C12.4605 16.3901 14.3901 14.4605 16.8505 14.0708C17.1651 14.021 17.5145 14.0062 17.9892 14.0018C18 13.3418 18 12.5983 18 11.75C18 10.9024 18 10.1596 17.9892 9.5ZM17.9326 15.5028C17.5276 15.5075 17.2902 15.5199 17.0852 15.5523C15.2666 15.8404 13.8404 17.2666 13.5523 19.0852C13.5199 19.2902 13.5075 19.5276 13.5028 19.9326C14.8631 19.8388 15.6486 19.6238 16.2481 19.1883C16.6089 18.9262 16.9262 18.6089 17.1883 18.2481C17.6238 17.6486 17.8388 16.8631 17.9326 15.5028Z" fill="black"/>
</svg>
