<svg width="20" height="18" viewBox="0 0 20 18" fill="none" xmlns="http://www.w3.org/2000/svg">
<path d="M10.75 13C10.3358 13 10 13.3358 10 13.75C10 14.1642 10.3358 14.5 10.75 14.5H14.75C15.1642 14.5 15.5 14.1642 15.5 13.75C15.5 13.3358 15.1642 13 14.75 13H10.75Z" fill="black"/>
<path fill-rule="evenodd" clip-rule="evenodd" d="M14.0951 0.070612C13.2307 -8.15094e-06 12.1553 -4.51575e-06 10.7836 7.38113e-08H8.71644C7.34472 -4.51575e-06 6.26929 -8.15094e-06 5.40494 0.070612C4.52479 0.142522 3.79769 0.291379 3.13955 0.626713C2.05762 1.17798 1.17798 2.05762 0.626713 3.13955C0.14394 4.08705 0.0405975 5.19938 0.0111851 6.73564C7.35745e-08 7.31985 7.38114e-08 7.98525 7.38114e-08 8.74421V8.78356C-4.51575e-06 10.1553 -8.15094e-06 11.2307 0.070612 12.0951C0.142522 12.9752 0.291379 13.7023 0.626713 14.3604C1.17798 15.4424 2.05762 16.322 3.13955 16.8733C3.79769 17.2086 4.52479 17.3575 5.40494 17.4294C6.26927 17.5 7.34469 17.5 8.71637 17.5H10.7836C12.1553 17.5 13.2307 17.5 14.0951 17.4294C14.9752 17.3575 15.7023 17.2086 16.3604 16.8733C17.4424 16.322 18.322 15.4424 18.8733 14.3604C19.2086 13.7023 19.3575 12.9752 19.4294 12.0951C19.5 11.2307 19.5 10.1553 19.5 8.78363V8.7442C19.5 7.98524 19.5 7.31985 19.4888 6.73564C19.4594 5.19938 19.3561 4.08705 18.8733 3.13955C18.322 2.05762 17.4424 1.17798 16.3604 0.626713C15.7023 0.291379 14.9752 0.142522 14.0951 0.070612ZM3.82054 1.96322C4.23197 1.75359 4.7397 1.62996 5.52708 1.56563C6.32322 1.50058 7.33749 1.5 8.75 1.5H10.75C12.1625 1.5 13.1768 1.50058 13.9729 1.56563C14.7603 1.62996 15.268 1.75359 15.6795 1.96322C16.4791 2.37068 17.1293 3.02085 17.5368 3.82054C17.7909 4.31922 17.9125 4.94217 17.9643 6H1.53567C1.58752 4.94217 1.70913 4.31922 1.96322 3.82054C2.37068 3.02085 3.02085 2.37068 3.82054 1.96322ZM1.5 8.75C1.5 8.29524 1.50001 7.88073 1.5023 7.5H17.9977C18 7.88073 18 8.29524 18 8.75C18 10.1625 17.9994 11.1768 17.9344 11.9729C17.87 12.7603 17.7464 13.268 17.5368 13.6795C17.1293 14.4791 16.4791 15.1293 15.6795 15.5368C15.268 15.7464 14.7603 15.87 13.9729 15.9344C13.1768 15.9994 12.1625 16 10.75 16H8.75C7.33749 16 6.32322 15.9994 5.52708 15.9344C4.7397 15.87 4.23197 15.7464 3.82054 15.5368C3.02085 15.1293 2.37068 14.4791 1.96322 13.6795C1.75359 13.268 1.62996 12.7603 1.56563 11.9729C1.50058 11.1768 1.5 10.1625 1.5 8.75Z" fill="black"/>
</svg>
