<svg width="15" height="15" viewBox="0 0 15 15" fill="none" xmlns="http://www.w3.org/2000/svg">
  <path d="M8.07693 0.576923C8.07693 0.258297 7.81863 0 7.5 0C7.18138 0 6.92308 0.258297 6.92308 0.576923V10.4311C6.67488 10.1793 6.37981 9.80848 5.95041 9.26692L4.87515 7.91079C4.67719 7.66112 4.31431 7.6192 4.06464 7.81716C3.81497 8.01512 3.77306 8.378 3.97102 8.62767L5.06813 10.0113C5.47827 10.5286 5.81671 10.9555 6.11963 11.2596C6.43048 11.5717 6.77551 11.8303 7.21641 11.9006C7.31034 11.9156 7.40509 11.9231 7.5 11.9231C7.59492 11.9231 7.68967 11.9156 7.7836 11.9006C8.2245 11.8303 8.56952 11.5717 8.88038 11.2596C9.1833 10.9555 9.52173 10.5286 9.93187 10.0114L11.029 8.62767C11.2269 8.378 11.185 8.01512 10.9354 7.81716C10.6857 7.6192 10.3228 7.66112 10.1249 7.91079L9.04959 9.26692C8.6202 9.80848 8.32513 10.1793 8.07693 10.4311V0.576923Z" fill="#0889A5"/>
  <path d="M14.1154 6.38428C13.9241 6.12952 13.5624 6.07812 13.3076 6.26948C13.0529 6.46084 13.0015 6.82249 13.1928 7.07725C13.6032 7.62359 13.8462 8.30182 13.8462 9.03846V9.80769C13.8462 10.5444 13.8444 10.8455 13.8059 11.0883C13.5843 12.4872 12.4872 13.5843 11.0883 13.8059C10.8455 13.8444 10.5444 13.8461 9.8077 13.8461H5.19231C4.45565 13.8461 4.15448 13.8444 3.91166 13.8059C2.51278 13.5843 1.41566 12.4872 1.1941 11.0883C1.15564 10.8455 1.15385 10.5444 1.15385 9.80769V9.03846C1.15385 8.30182 1.3968 7.62359 1.80717 7.07725C1.99853 6.82249 1.94713 6.46084 1.69237 6.26948C1.4376 6.07812 1.07595 6.12952 0.88459 6.38428C0.329286 7.12357 6.4081e-06 8.04339 6.4081e-06 9.03846L3.15277e-06 9.86986C-4.88408e-05 10.5253 -8.04777e-05 10.9245 0.0544618 11.2688C0.35422 13.1614 1.83856 14.6458 3.73116 14.9455C4.07553 15.0001 4.47475 15.0001 5.13016 15H9.86985C10.5253 15.0001 10.9245 15.0001 11.2688 14.9455C13.1614 14.6458 14.6458 13.1614 14.9455 11.2688C15.0001 10.9245 15.0001 10.5252 15 9.86984L15 9.03846C15 8.04339 14.6707 7.12357 14.1154 6.38428Z" fill="#0889A5"/>
</svg>