<svg width="20" height="22" viewBox="0 0 20 22" fill="none" xmlns="http://www.w3.org/2000/svg">
<path fill-rule="evenodd" clip-rule="evenodd" d="M9.75003 9C8.23125 9 7.00003 10.2312 7.00003 11.75C7.00003 13.0088 7.84578 14.07 9.00003 14.3965V17.75C9.00003 18.1642 9.33582 18.5 9.75003 18.5C10.1642 18.5 10.5 18.1642 10.5 17.75V14.3965C11.6543 14.07 12.5 13.0088 12.5 11.75C12.5 10.2312 11.2688 9 9.75003 9ZM8.50003 11.75C8.50003 11.0596 9.05968 10.5 9.75003 10.5C10.4404 10.5 11 11.0596 11 11.75C11 12.4404 10.4404 13 9.75003 13C9.05968 13 8.50003 12.4404 8.50003 11.75Z" fill="black"/>
<path fill-rule="evenodd" clip-rule="evenodd" d="M9.75003 0C6.5744 0 4.00003 2.57436 4.00003 5.75V6.27281L3.97319 6.28142C2.22267 6.8502 0.850236 8.22263 0.281458 9.97315C-0.00041604 10.8407 -0.000252241 11.8819 1.6278e-05 13.5882V13.9118C-0.000252241 15.6181 -0.00041604 16.6593 0.281458 17.5268C0.850236 19.2774 2.22267 20.6498 3.97319 21.2186C4.8407 21.5005 5.88191 21.5003 7.58817 21.5H11.9119C13.6182 21.5003 14.6594 21.5005 15.5269 21.2186C17.2774 20.6498 18.6498 19.2774 19.2186 17.5268C19.5005 16.6593 19.5003 15.6181 19.5 13.9119V13.5881C19.5003 11.8819 19.5005 10.8407 19.2186 9.97315C18.6498 8.22263 17.2774 6.8502 15.5269 6.28142L15.5 6.27281V5.75C15.5 2.57436 12.9257 0 9.75003 0ZM7.66606 6C6.78686 5.99997 6.08514 5.99994 5.50003 6.03306V5.75C5.50003 3.40279 7.40282 1.5 9.75003 1.5C12.0972 1.5 14 3.40279 14 5.75V6.03306C13.4149 5.99994 12.7132 5.99997 11.834 6H7.66606ZM4.87463 7.60329C5.47223 7.50262 6.27818 7.5 7.75003 7.5H11.75C13.2219 7.5 14.0278 7.50262 14.6254 7.60329C14.7907 7.63113 14.9332 7.66571 15.0634 7.70801C16.3572 8.12841 17.3716 9.14282 17.792 10.4367C17.9908 11.0484 18 11.8303 18 13.75C18 15.6697 17.9908 16.4516 17.792 17.0633C17.3716 18.3572 16.3572 19.3716 15.0634 19.792C14.4516 19.9907 13.6697 20 11.75 20H7.75003C5.83038 20 5.04842 19.9907 4.43671 19.792C3.14285 19.3716 2.12844 18.3572 1.70804 17.0633C1.50929 16.4516 1.50003 15.6697 1.50003 13.75C1.50003 11.8303 1.50929 11.0484 1.70804 10.4367C2.12844 9.14282 3.14285 8.12841 4.43671 7.70801C4.56688 7.66571 4.70938 7.63113 4.87463 7.60329Z" fill="black"/>
</svg>
