<svg width="20" height="25" viewBox="0 0 20 25" fill="none" xmlns="http://www.w3.org/2000/svg">
<path fill-rule="evenodd" clip-rule="evenodd" d="M15.5493 1.89341C14.4448 1.25166 13.5237 0.716519 12.7357 0.390636C11.904 0.0466642 11.0754 -0.128471 10.1921 0.109671C9.30885 0.347813 8.67827 0.916377 8.1289 1.63272C7.60841 2.31139 7.07665 3.23825 6.43894 4.34976L0.937126 13.9385C0.567231 14.5819 0.265077 15.1075 0.112356 15.6719C0.0905381 15.7526 0.0717704 15.834 0.0562904 15.9167C-0.0675479 16.578 0.0335075 17.242 0.161313 18.0818L0.195751 18.3088C0.431667 19.8677 0.626125 21.1527 0.919412 22.1271C1.22615 23.1462 1.69767 24.0283 2.62506 24.5671C3.55244 25.1058 4.54739 25.0757 5.57785 24.8334C6.56315 24.6018 7.7663 24.1288 9.22598 23.5549L9.43855 23.4714C10.2252 23.1629 10.8472 22.919 11.3545 22.4804C11.8618 22.0417 12.1951 21.4597 12.6166 20.7237L18.1183 11.1349C18.7561 10.0234 19.2879 9.09661 19.6118 8.30371C19.9536 7.4668 20.1277 6.63301 19.891 5.74426C19.6543 4.8555 19.0893 4.22099 18.3774 3.66818C17.7029 3.14445 16.7818 2.60937 15.6772 1.96769L15.5493 1.89341ZM15.7049 11.0557L7.7138 6.41323L2.85389 14.8833C2.32444 15.8061 2.19707 16.056 2.14887 16.3134C2.10067 16.5708 2.12894 16.8502 2.28837 17.9036C2.53999 19.5659 2.71379 20.6967 2.95739 21.506C3.19271 22.2879 3.43537 22.5637 3.68975 22.7115C3.94414 22.8592 4.30286 22.9328 5.0934 22.747C5.91176 22.5546 6.97187 22.1406 8.52841 21.5287C9.51471 21.141 9.76931 21.0259 9.96676 20.8552C10.1642 20.6845 10.3156 20.4485 10.845 19.5258L15.7049 11.0557ZM16.7674 9.19879C17.1664 8.49133 17.4541 7.94977 17.6423 7.48918C17.8935 6.87401 17.9019 6.55311 17.8342 6.29882C17.7665 6.04453 17.5998 5.77083 17.0765 5.3645C16.5287 4.93916 15.7337 4.47469 14.5486 3.78616C13.3634 3.09764 12.5662 2.63711 11.9262 2.37245C11.3149 2.11962 10.9959 2.1112 10.7432 2.17934C10.4905 2.24747 10.2185 2.41521 9.8147 2.94176C9.51236 3.33599 9.19011 3.8575 8.78073 4.55891L16.7674 9.19879Z" fill="#0889A5"/>
</svg>
