<svg width="22" height="23" viewBox="0 0 22 23" fill="none" xmlns="http://www.w3.org/2000/svg">
<path d="M20.1569 0.746654C20.155 0.332445 19.8177 -0.00184042 19.4035 7.62566e-06C18.9893 0.00185573 18.655 0.339137 18.6569 0.753346L18.6657 2.73906C18.6692 3.50756 18.6705 4.03651 18.6322 4.44009C18.1951 3.96896 17.7162 3.53711 17.2015 3.15038C15.4046 1.80032 13.1697 1 10.75 1C4.81294 1 0 5.81294 0 11.75C0 17.6871 4.81294 22.5 10.75 22.5C16.6871 22.5 21.5 17.6871 21.5 11.75C21.5 11.3358 21.1642 11 20.75 11C20.3358 11 20 11.3358 20 11.75C20 16.8586 15.8586 21 10.75 21C5.64137 21 1.5 16.8586 1.5 11.75C1.5 6.64137 5.64137 2.5 10.75 2.5C12.8336 2.5 14.7544 3.18804 16.3005 4.34962C16.7957 4.72173 17.2525 5.14242 17.6636 5.60457C17.6146 5.61231 17.5614 5.61938 17.5035 5.6257C17.0922 5.67062 16.5485 5.66933 15.7391 5.66572L13.7534 5.65686C13.3391 5.65501 13.0019 5.9893 13 6.40351C12.9982 6.81772 13.3324 7.155 13.7467 7.15685L15.7757 7.1659C16.5306 7.16929 17.1602 7.17211 17.6664 7.11684C18.1973 7.05886 18.6866 6.92926 19.1117 6.60029C19.2031 6.52952 19.2899 6.4531 19.3715 6.3715C19.4531 6.2899 19.5295 6.20314 19.6003 6.11169C19.9293 5.68661 20.0589 5.19728 20.1168 4.66635C20.1721 4.16017 20.1693 3.5306 20.1659 2.77573L20.1569 0.746654Z" fill="black"/>
</svg>
