<svg width="20" height="22" viewBox="0 0 20 22" fill="none" xmlns="http://www.w3.org/2000/svg">
<path d="M10.7935 9.09823C10.7787 9.08635 10.7642 9.07487 10.75 9.06379V16C10.75 16.4142 10.4142 16.75 10 16.75C9.58579 16.75 9.25 16.4142 9.25 16V9.06379C9.23578 9.07487 9.22128 9.08635 9.20649 9.09823C8.88386 9.35733 8.50033 9.74268 7.93054 10.3176L6.53269 11.728C6.24111 12.0222 5.76624 12.0243 5.47204 11.7327C5.17784 11.4411 5.17573 10.9662 5.46731 10.672L6.89565 9.2309C7.42703 8.69473 7.87023 8.24753 8.26724 7.92869C8.68367 7.59426 9.12131 7.33989 9.65451 7.27193C9.88392 7.24269 10.1161 7.24269 10.3455 7.27193C10.8787 7.33989 11.3163 7.59427 11.7328 7.92869C12.1298 8.24753 12.573 8.69471 13.1043 9.23087L14.5327 10.672C14.8243 10.9662 14.8222 11.4411 14.528 11.7327C14.2338 12.0243 13.7589 12.0222 13.4673 11.728L12.0695 10.3176C11.4997 9.74268 11.1161 9.35733 10.7935 9.09823Z" fill="#0889A5"/>
<path fill-rule="evenodd" clip-rule="evenodd" d="M13.0257 0.279369C12.1685 0.25 11.1711 0.25 10.0111 0.25H9.95475C8.11821 0.249992 6.67861 0.249985 5.53648 0.373728C4.37094 0.500006 3.42656 0.762324 2.62024 1.34815C2.13209 1.70281 1.70281 2.13209 1.34815 2.62024C0.762324 3.42656 0.500006 4.37094 0.373728 5.53648C0.249985 6.67861 0.249992 8.11821 0.25 9.95475V12.0452C0.249992 13.8818 0.249985 15.3214 0.373728 16.4635C0.500006 17.6291 0.762324 18.5734 1.34815 19.3798C1.70281 19.8679 2.13209 20.2972 2.62024 20.6518C3.42656 21.2377 4.37094 21.5 5.53648 21.6263C6.67859 21.75 8.11817 21.75 9.95465 21.75H10.0453C11.8818 21.75 13.3214 21.75 14.4635 21.6263C15.6291 21.5 16.5734 21.2377 17.3798 20.6518C17.8679 20.2972 18.2972 19.8679 18.6518 19.3798C19.2377 18.5734 19.5 17.6291 19.6263 16.4635C19.75 15.3214 19.75 13.8818 19.75 12.0453V9.98899C19.75 8.82891 19.75 7.83153 19.7206 6.97432C19.6564 5.10087 19.4537 3.7239 18.6518 2.62024C18.2972 2.13209 17.8679 1.70281 17.3798 1.34815C16.2761 0.546296 14.8991 0.343555 13.0257 0.279369ZM3.50191 2.56168C4.00992 2.19259 4.66013 1.97745 5.69804 1.865C6.74999 1.75103 8.10843 1.75 10 1.75C10.8483 1.75 11.5918 1.75005 12.2518 1.76082C12.2562 2.23547 12.271 2.58489 12.3208 2.8995C12.7105 5.35988 14.6401 7.28952 17.1005 7.67921C17.4151 7.72904 17.7645 7.74381 18.2392 7.74818C18.25 8.40822 18.25 9.15165 18.25 10V12C18.25 13.8916 18.249 15.25 18.135 16.302C18.0225 17.3399 17.8074 17.9901 17.4383 18.4981C17.1762 18.8589 16.8589 19.1762 16.4981 19.4383C15.9901 19.8074 15.3399 20.0225 14.302 20.135C13.25 20.249 11.8916 20.25 10 20.25C8.10843 20.25 6.74999 20.249 5.69804 20.135C4.66013 20.0225 4.00992 19.8074 3.50191 19.4383C3.14111 19.1762 2.82382 18.8589 2.56168 18.4981C2.19259 17.9901 1.97745 17.3399 1.865 16.302C1.75103 15.25 1.75 13.8916 1.75 12V10C1.75 8.10843 1.75103 6.74999 1.865 5.69804C1.97745 4.66013 2.19259 4.00992 2.56168 3.50191C2.82382 3.14111 3.14111 2.82382 3.50191 2.56168ZM13.8023 2.66485C13.7699 2.45981 13.7575 2.22238 13.7528 1.81744C15.1131 1.91121 15.8986 2.12615 16.4981 2.56168C16.8589 2.82382 17.1762 3.14111 17.4383 3.50191C17.8738 4.10137 18.0888 4.88688 18.1826 6.24722C17.7776 6.24254 17.5402 6.23015 17.3352 6.19768C15.5166 5.90965 14.0904 4.48339 13.8023 2.66485Z" fill="#0889A5"/>
</svg>

