<svg width="22" height="18" viewBox="0 0 22 18" fill="none" xmlns="http://www.w3.org/2000/svg">
<path fill-rule="evenodd" clip-rule="evenodd" d="M5.19444 0C2.32563 0 0 2.32563 0 5.19444C0 6.02618 0.47698 6.78421 1.22681 7.14413L1.71417 7.37806C2.8652 7.93055 2.8652 9.56945 1.71417 10.1219L1.22681 10.3559C0.476981 10.7158 0 11.4738 0 12.3056C0 15.1744 2.32563 17.5 5.19444 17.5H16.3056C19.1744 17.5 21.5 15.1744 21.5 12.3056C21.5 11.4738 21.023 10.7158 20.2732 10.3559L19.7858 10.1219C18.6348 9.56945 18.6348 7.93056 19.7858 7.37806L20.2732 7.14413C21.023 6.78421 21.5 6.02618 21.5 5.19444C21.5 2.32563 19.1744 0 16.3056 0H5.19444ZM1.5 5.19444C1.5 3.15406 3.15406 1.5 5.19444 1.5H16.3056C18.3459 1.5 20 3.15406 20 5.19444C20 5.44929 19.8538 5.68156 19.6241 5.79184L19.1367 6.02578C16.8512 7.12285 16.8512 10.3772 19.1367 11.4742L19.6241 11.7082C19.8538 11.8184 20 12.0507 20 12.3056C20 14.3459 18.3459 16 16.3056 16H5.19444C3.15406 16 1.5 14.3459 1.5 12.3056C1.5 12.0507 1.64615 11.8184 1.8759 11.7082L2.36327 11.4742C4.64884 10.3772 4.64883 7.12285 2.36327 6.02578L1.8759 5.79184C1.64615 5.68156 1.5 5.44929 1.5 5.19444Z" fill="#0889A5"/>
<path d="M13.5 1.5C13.5 1.5 13.1837 1.5 12.7695 1.5C12.3553 1.5 12 1.5 12 1.5V1.81667C12 2.23088 12.3358 2.56667 12.75 2.56667C13.1642 2.56667 13.5 2.23088 13.5 1.81667V1.5Z" fill="#0889A5"/>
<path d="M13.5 5.01667C13.5 4.60245 13.1642 4.26667 12.75 4.26667C12.3358 4.26667 12 4.60245 12 5.01667V7.15C12 7.56421 12.3358 7.9 12.75 7.9C13.1642 7.9 13.5 7.56421 13.5 7.15V5.01667Z" fill="#0889A5"/>
<path d="M13.5 10.35C13.5 9.93579 13.1642 9.6 12.75 9.6C12.3358 9.6 12 9.93579 12 10.35V12.4833C12 12.8975 12.3358 13.2333 12.75 13.2333C13.1642 13.2333 13.5 12.8975 13.5 12.4833V10.35Z" fill="#0889A5"/>
<path d="M13.5 15.6833C13.5 15.2691 13.1642 14.9333 12.75 14.9333C12.3358 14.9333 12 15.2691 12 15.6833V16H12.75H13.5V15.6833Z" fill="white"/>
</svg>
