<svg width="21" height="25" viewBox="0 0 21 25" fill="none" xmlns="http://www.w3.org/2000/svg">
<path fill-rule="evenodd" clip-rule="evenodd" d="M10.1852 0C7.13155 0 4.65608 2.47284 4.65608 5.52323V5.81393H0.873016C0.390862 5.81393 0 6.20438 0 6.68602C0 7.16766 0.390862 7.55811 0.873016 7.55811H19.4974C19.9795 7.55811 20.3704 7.16766 20.3704 6.68602C20.3704 6.20438 19.9795 5.81393 19.4974 5.81393H15.7143V5.52323C15.7143 2.47284 13.2388 0 10.1852 0ZM10.1852 1.74418C12.2745 1.74418 13.9683 3.43612 13.9683 5.52323V5.81393H6.40212V5.52323C6.40212 3.43612 8.09585 1.74418 10.1852 1.74418Z" fill="#E50000"/>
<path d="M2.90614 8.9291C2.86053 8.44962 2.43445 8.09785 1.95446 8.14341C1.47447 8.18897 1.12233 8.6146 1.16794 9.09408C1.2779 10.2502 1.47636 11.6747 1.73146 13.5058L2.05918 15.8582C2.3725 18.1079 2.55019 19.3838 2.93461 20.429C3.65003 22.3741 4.9262 23.9334 6.56747 24.6253C7.45873 25.001 8.47817 25.0006 9.99583 25H10.3745C11.8922 25.0006 12.9116 25.001 13.8029 24.6253C15.4442 23.9334 16.7203 22.3741 17.4358 20.429C17.8202 19.3838 17.9979 18.1079 18.3112 15.8582L18.6389 13.5058C18.894 11.6747 19.0925 10.2502 19.2024 9.09408C19.248 8.6146 18.8959 8.18897 18.4159 8.14341C17.9359 8.09785 17.5098 8.44962 17.4642 8.9291C17.3583 10.043 17.1652 11.4302 16.9067 13.2861L16.6013 15.478C16.2631 17.9055 16.1082 18.9808 15.7968 19.8274C15.1963 21.4602 14.1978 22.5657 13.1241 23.0183C12.6 23.2392 11.9652 23.2557 10.1852 23.2557C8.4052 23.2557 7.77035 23.2392 7.24631 23.0183C6.17256 22.5657 5.17403 21.4602 4.57352 19.8274C4.26213 18.9808 4.10725 17.9055 3.76907 15.478L3.46371 13.2861C3.20515 11.4302 3.01209 10.043 2.90614 8.9291Z" fill="#E50000"/>
</svg>
