<svg width="22" height="22" viewBox="0 0 22 22" fill="none" xmlns="http://www.w3.org/2000/svg">
<path fill-rule="evenodd" clip-rule="evenodd" d="M7.78696 7.72335C8.18981 5.26099 8.91074 2.76158 9.26169 1.61899C9.74581 1.54073 10.2429 1.5 10.75 1.5C11.2571 1.5 11.7542 1.54073 12.2383 1.61899C12.5893 2.76158 13.3102 5.261 13.713 7.72335C12.6675 7.89214 11.6462 8 10.75 8C9.85383 8 8.83249 7.89214 7.78696 7.72335ZM15.1883 7.45082C14.8549 5.42591 14.3209 3.397 13.9356 2.06298C16.1175 2.86344 17.9153 4.46342 18.9725 6.50837C17.9861 6.79232 16.628 7.15427 15.1883 7.45082ZM15.3935 8.93993C17.0015 8.61269 18.5112 8.20519 19.5534 7.9018C19.8432 8.79829 20 9.75523 20 10.75C20 11.2571 19.9593 11.7542 19.881 12.2383C18.9743 12.5168 17.2086 13.0298 15.2837 13.4311C15.4157 12.5093 15.5 11.5924 15.5 10.75C15.5 10.1726 15.4604 9.5617 15.3935 8.93993ZM15.015 15.015C16.7022 14.6887 18.3148 14.2597 19.437 13.9355C18.5032 16.4813 16.4813 18.5032 13.9356 19.437C14.2597 18.3148 14.6887 16.7022 15.015 15.015ZM13.4311 15.2837C13.0298 17.2086 12.5168 18.9743 12.2383 19.881C11.7542 19.9593 11.2571 20 10.75 20C10.2429 20 9.74581 19.9593 9.26168 19.881C8.98317 18.9743 8.47025 17.2086 8.06893 15.2837C8.99069 15.4157 9.90759 15.5 10.75 15.5C11.5924 15.5 12.5093 15.4157 13.4311 15.2837ZM6.48495 15.015C6.8113 16.7022 7.24031 18.3148 7.56445 19.437C5.01873 18.5032 2.99683 16.4813 2.06296 13.9355C3.1852 14.2597 4.79784 14.6887 6.48495 15.015ZM6.21634 13.4311C4.29141 13.0298 2.52568 12.5168 1.61899 12.2383C1.54073 11.7542 1.5 11.2571 1.5 10.75C1.5 9.75523 1.65677 8.79829 1.94658 7.9018C2.98878 8.2052 4.49846 8.61269 6.10654 8.93993C6.03957 9.5617 6 10.1726 6 10.75C6 11.5924 6.08431 12.5093 6.21634 13.4311ZM0 10.75C0 9.53998 0.200206 8.37539 0.569718 7.28838L0.553072 7.2782L0.794112 6.68804L0.79429 6.68761C2.12486 3.4299 5.00736 0.970881 8.52616 0.230454C9.24434 0.0793359 9.98831 0 10.75 0C11.5117 0 12.2557 0.0793362 12.9738 0.230455C16.4937 0.971106 19.3769 3.43138 20.7069 6.69055C21.2185 7.94407 21.5 9.31509 21.5 10.75C21.5 11.5117 21.4207 12.2557 21.2695 12.9738C20.3956 17.127 17.127 20.3956 12.9738 21.2695C12.2557 21.4207 11.5117 21.5 10.75 21.5C9.98831 21.5 9.24434 21.4207 8.52616 21.2695C4.37304 20.3956 1.10435 17.127 0.230454 12.9738C0.0793357 12.2557 0 11.5117 0 10.75ZM6.31166 7.45082C4.87204 7.15427 3.51388 6.79232 2.52748 6.50837C3.58467 4.46342 5.38247 2.86343 7.56443 2.06298C7.17911 3.397 6.64509 5.42591 6.31166 7.45082ZM7.5 10.75C7.5 10.2692 7.53109 9.7509 7.58638 9.21039C8.66915 9.38381 9.76116 9.5 10.75 9.5C11.7388 9.5 12.8309 9.38381 13.9136 9.21038C13.9689 9.7509 14 10.2692 14 10.75C14 11.6481 13.8916 12.6726 13.7219 13.7219C12.6726 13.8916 11.6481 14 10.75 14C9.85186 14 8.8274 13.8916 7.77808 13.7219C7.60836 12.6726 7.5 11.6481 7.5 10.75Z" fill="black"/>
</svg>
